<svg width="17" height="20" viewBox="0 0 17 20" fill="none" xmlns="http://www.w3.org/2000/svg">
<path d="M15.1364 5.21293C15.3701 3.68888 15.1364 2.67285 14.3182 1.73497C13.4222 0.67986 11.7859 0.25 9.68218 0.25H3.64363C3.21509 0.25 2.86446 0.562625 2.78654 0.992485L0.254248 17.0145C0.21529 17.3272 0.44904 17.6007 0.760707 17.6007H4.50072L4.22801 19.242C4.18905 19.5155 4.38384 19.75 4.69551 19.75H7.85114C8.24072 19.75 8.55239 19.4765 8.59135 19.1247L9.25364 14.9825C9.2926 14.6308 9.64323 14.3572 9.99385 14.3572H10.4614C13.5001 14.3572 15.9155 13.1067 16.6168 9.51152C16.8895 8.02655 16.7726 6.73697 15.9934 5.87725C15.7597 5.60371 15.487 5.40832 15.1364 5.21293" fill="#009CDE"/>
<path d="M15.1364 5.21293C15.3701 3.68888 15.1364 2.67285 14.3182 1.73497C13.4222 0.67986 11.7859 0.25 9.68218 0.25H3.64363C3.21509 0.25 2.86446 0.562625 2.78654 0.992485L0.254248 17.0145C0.21529 17.3272 0.44904 17.6007 0.760707 17.6007H4.50071L5.39676 11.8171C5.47468 11.3873 5.8253 11.0746 6.25384 11.0746H8.04593C11.5522 11.0746 14.2793 9.66783 15.0584 5.52555C15.0974 5.44739 15.0974 5.33016 15.1364 5.21293Z" fill="#012169"/>
<path d="M6.44864 5.252C6.48759 4.97846 6.83822 4.62675 7.18884 4.62675H11.9418C12.4872 4.62675 13.0326 4.66583 13.5001 4.74399C13.9286 4.82214 14.7078 5.01753 15.0974 5.252C15.3312 3.72796 15.0974 2.71192 14.2793 1.77405C13.4222 0.67986 11.7859 0.25 9.68218 0.25H3.64363C3.21509 0.25 2.86446 0.562625 2.78654 0.992485L0.254248 17.0145C0.21529 17.3272 0.44904 17.6007 0.760707 17.6007H4.50071L6.44864 5.252V5.252Z" fill="#003087"/>
</svg>
