<svg width="16" height="16" viewBox="0 0 16 16" fill="none" xmlns="http://www.w3.org/2000/svg">
<path d="M7.92065 6.09398C8.77398 6.13398 8.99398 6.86065 9.00732 7.20065H10.2007C10.1473 5.88065 9.20732 5.07398 7.90065 5.07398C6.42732 5.07398 5.33398 6.00065 5.33398 8.09398C5.33398 9.38732 5.95398 10.9206 7.89398 10.9206C9.37398 10.9206 10.1673 9.82065 10.1873 8.95398H8.99398C8.97398 9.34732 8.69398 9.87398 7.90732 9.91398C7.03398 9.88732 6.66732 9.20732 6.66732 8.09398C6.66732 6.16732 7.52065 6.10732 7.92065 6.09398ZM8.00065 1.33398C4.32065 1.33398 1.33398 4.32065 1.33398 8.00065C1.33398 11.6807 4.32065 14.6673 8.00065 14.6673C11.6807 14.6673 14.6673 11.6807 14.6673 8.00065C14.6673 4.32065 11.6807 1.33398 8.00065 1.33398ZM8.00065 13.334C5.06065 13.334 2.66732 10.9406 2.66732 8.00065C2.66732 5.06065 5.06065 2.66732 8.00065 2.66732C10.9406 2.66732 13.334 5.06065 13.334 8.00065C13.334 10.9406 10.9406 13.334 8.00065 13.334Z" fill="#737373"/>
</svg>
